Coordinates
version=1
nRows=17
nColumns=40
inDegrees=yes

Units are S.I. units (second, meters, Newtons, ...)
Angles are in degrees.

endheader
time	pelvis_tilt	pelvis_list	pelvis_rotation	pelvis_tx	pelvis_ty	pelvis_tz	hip_flexion_r	hip_adduction_r	hip_rotation_r	knee_angle_r	knee_angle_r_beta	ankle_angle_r	subtalar_angle_r	mtp_angle_r	hip_flexion_l	hip_adduction_l	hip_rotation_l	knee_angle_l	knee_angle_l_beta	ankle_angle_l	subtalar_angle_l	mtp_angle_l	lumbar_extension	lumbar_bending	lumbar_rotation	arm_flex_r	arm_add_r	arm_rot_r	elbow_flex_r	pro_sup_r	wrist_flex_r	wrist_dev_r	arm_flex_l	arm_add_l	arm_rot_l	elbow_flex_l	pro_sup_l	wrist_flex_l	wrist_dev_l
      2.11750000	     -3.48100591	     -4.36390254	      0.08198880	      0.95340424	      0.91698459	      0.53542084	     24.20062663	      0.18650828	    -14.30808352	     24.49155984	     24.49155984	      5.44958305	     -8.45713664	     -2.87971233	      5.02191747	    -10.12733610	     -8.35923888	     36.59946199	     36.59946199	     16.01617991	    -12.48388160	     -7.98340625	    -11.85731842	      3.89842887	      0.36686997	     -7.55386302	    -14.77787709	     -7.69949107	     30.00907213	     46.48603610	      0.00000000	      0.00000000	      6.31991629	    -11.77561516	    -32.49416779	    129.77347634	     50.53418182	      0.00000000	      0.00000000
      2.12914286	     -3.53005319	     -4.63321177	      0.26707278	      0.95269325	      0.91795342	      0.53800700	     23.47816482	      0.59346523	    -14.76605446	     24.08572721	     24.08572721	      5.95160996	     -7.92799252	     -3.06227027	      6.92195089	    -10.91777547	     -7.44566587	     40.46659519	     40.46659519	     14.16267649	    -13.93207659	     -8.14048498	    -11.91303893	      4.18036958	      0.44175826	     -5.98906818	    -14.86683679	     -7.54992746	     30.85080651	     46.45002923	      0.00000000	      0.00000000	      5.24776200	    -11.30423744	    -32.16970501	    128.47308684	     50.48220643	      0.00000000	      0.00000000
      2.14078571	     -3.59782268	     -4.87897225	      0.44950222	      0.95180227	      0.91889155	      0.54046891	     22.75365898	      0.96789021	    -15.27595042	     23.60670085	     23.60670085	      6.40082552	     -7.28033493	     -3.25248625	      8.94991458	    -11.61858702	     -6.45446297	     44.33555127	     44.33555127	     12.23932354	    -15.22136589	     -7.99001033	    -11.94071731	      4.43109522	      0.49280020	     -4.37473254	    -14.99659743	     -7.36758679	     31.79334061	     46.40816925	      0.00000000	      0.00000000	      4.15100970	    -10.82277062	    -31.78842659	    127.02739180	     50.42215855	      0.00000000	      0.00000000
      2.15242857	     -3.71563856	     -5.07152219	      0.60684016	      0.95071378	      0.91976405	      0.54273334	     22.05637623	      1.26400463	    -15.87161151	     23.06200645	     23.06200645	      6.78302958	     -6.37888284	     -3.48888009	     11.12289964	    -12.16880651	     -5.44230001	     48.14815935	     48.14815935	     10.48051390	    -16.29619705	     -7.22776874	    -11.92637909	      4.64851022	      0.49461349	     -2.76191157	    -15.16033369	     -6.99167864	     32.99119743	     46.34123739	      0.00000000	      0.00000000	      2.96233995	    -10.46654745	    -31.35440972	    125.14531474	     50.35183648	      0.00000000	      0.00000000
      2.16407143	     -3.75489348	     -5.23373773	      0.74711741	      0.94948320	      0.92065045	      0.54473818	     21.32792623	      1.46850885	    -16.60100770	     22.62328544	     22.62328544	      7.15518744	     -5.23193572	     -3.94731045	     13.38908875	    -12.57466640	     -4.36331973	     52.14589179	     52.14589179	     10.49762272	    -16.24639284	     -2.49007462	    -12.03573250	      4.85024775	      0.92267849	     -1.81651601	    -15.90896191	     -4.73324339	     35.61733830	     46.07379378	      0.00000000	      0.00000000	      2.31006381	     -9.89410294	    -30.39180397	    122.92395851	     50.28010798	      0.00000000	      0.00000000
      2.17571429	     -3.80721738	     -5.49695292	      0.87774792	      0.94811393	      0.92146351	      0.54679181	     20.59087211	      1.90483080	    -16.97401307	     22.05879259	     22.05879259	      7.45071987	     -4.73212910	     -4.00631165	     15.52948992	    -13.13199267	     -3.48178426	     55.49463637	     55.49463637	      9.05723779	    -16.66197883	     -2.02085069	    -12.14569977	      5.11794476	      0.95780840	      0.13112396	    -16.09281583	     -4.63122380	     36.54849887	     46.04309880	      0.00000000	      0.00000000	      1.16871823	     -9.31926006	    -29.73079993	    121.52195093	     50.20054288	      0.00000000	      0.00000000
      2.18735714	     -3.83949167	     -5.61734793	      0.96594789	      0.94665481	      0.92242066	      0.54860147	     19.83518055	      2.09702886	    -17.62332893	     21.54115983	     21.54115983	      7.74280809	     -3.56980685	     -4.24015565	     17.64954959	    -13.41043443	     -2.63947467	     58.61858903	     58.61858903	      8.84786564	    -16.56545772	      0.90358176	    -12.25969800	      5.26687073	      1.06622219	      1.97338919	    -16.46150496	     -3.71577374	     37.89847615	     45.94245467	      0.00000000	      0.00000000	      0.21518311	     -9.14096495	    -28.77235478	    118.72447466	     50.08578994	      0.00000000	      0.00000000
      2.19900000	     -3.91536725	     -5.81787390	      1.02399866	      0.94506614	      0.92316620	      0.55036971	     19.16248213	      2.47513383	    -17.88472399	     21.00651484	     21.00651484	      7.99290835	     -3.10766637	     -4.26512849	     19.73185162	    -13.78671203	     -1.92860602	     61.23066768	     61.23066768	      8.06628546	    -16.69293896	      1.35689680	    -12.36800523	      5.44552602	      1.25019937	      3.95452565	    -16.69131002	     -3.61358461	     38.80798578	     45.91392686	      0.00000000	      0.00000000	     -0.76654116	     -8.39711054	    -27.98395580	    117.40567727	     50.00000555	      0.00000000	      0.00000000
      2.21064286	     -3.97992294	     -5.92342802	      1.07569890	      0.94339201	      0.92404117	      0.55196441	     18.42862480	      2.70649492	    -18.33877298	     20.40133467	     20.40133467	      8.26268134	     -2.12641272	     -4.28909330	     21.87920381	    -13.98939052	     -1.27418312	     63.71151094	     63.71151094	      9.17165589	    -15.99604655	      5.82085604	    -12.44942331	      5.59174966	      1.66554628	      5.52765165	    -17.40820172	     -1.76732398	     40.58759602	     45.74517123	      0.00000000	      0.00000000	     -1.46739838	     -8.36144294	    -26.31127668	    114.36461979	     49.85369113	      0.00000000	      0.00000000
      2.22228571	     -4.04322184	     -6.03533805	      1.11127933	      0.94168652	      0.92489860	      0.55351048	     17.68714227	      2.98701876	    -18.65282395	     19.75480839	     19.75480839	      8.47636487	     -1.39492863	     -4.30796859	     23.78698166	    -14.23336801	     -0.83384683	     65.37480849	     65.37480849	      8.85507091	    -16.01643134	      5.90971394	    -12.56505967	      5.70491096	      1.64083441	      7.76804315	    -17.51098615	     -1.64150602	     41.47486547	     45.71860865	      0.00000000	      0.00000000	     -2.46046428	     -8.09033408	    -25.53555807	    112.00133525	     49.74718254	      0.00000000	      0.00000000
      2.23392857	     -4.10401832	     -6.13153238	      1.16328310	      0.93989475	      0.92576662	      0.55488372	     16.97264046	      3.24455992	    -18.91279314	     19.14926406	     19.14926406	      8.65161309	     -0.77143612	     -4.30144989	     25.63126730	    -14.43580313	     -0.47138497	     66.56524021	     66.56524021	      8.70795729	    -16.04838724	      6.00163702	    -12.68717317	      5.82522682	      1.71672187	      9.99716510	    -17.61062621	     -1.46616905	     42.28708801	     45.69282918	      0.00000000	      0.00000000	     -3.35039070	     -7.66524271	    -24.52483924	    109.66360125	     49.62644780	      0.00000000	      0.00000000
      2.24557143	     -4.13773422	     -6.16777886	      1.16773172	      0.93805844	      0.92664477	      0.55615870	     16.28623894	      3.44365579	    -19.04726357	     18.63185500	     18.63185500	      8.83906789	     -0.30447991	     -4.29410573	     27.30796035	    -14.59323930	     -0.30892342	     67.22527533	     67.22527533	      8.69630931	    -16.16207763	      6.02779963	    -12.88127327	      5.84337556	      1.87386984	     12.25307217	    -17.71276537	     -1.36166432	     43.11351764	     45.67064344	      0.00000000	      0.00000000	     -4.17555464	     -7.06590631	    -23.53509849	    107.65228773	     49.51182374	      0.00000000	      0.00000000
      2.25721429	     -4.17396422	     -6.22443695	      1.22919764	      0.93631045	      0.92756670	      0.55734846	     15.42650358	      3.69014520	    -19.37035627	     17.79530693	     17.79530693	      8.97656726	      0.51022148	     -4.25320254	     28.93238437	    -14.74820940	     -0.17611845	     67.43971713	     67.43971713	      8.83889958	    -16.32329124	      6.28104001	    -12.91667924	      5.91474800	      1.87414606	     14.56643694	    -17.79610917	     -0.84199114	     43.78864480	     45.63400039	      0.00000000	      0.00000000	     -4.67432139	     -7.28109896	    -22.15136088	    103.73784052	     49.33769022	      0.00000000	      0.00000000
      2.26885714	     -4.24924752	     -6.24285109	      1.29805527	      0.93439347	      0.92839952	      0.55824901	     14.69205248	      3.87559536	    -19.55916081	     17.07812093	     17.07812093	      9.10111998	      1.08198509	     -4.21006727	     30.45917663	    -14.83577941	     -0.14999145	     67.09721208	     67.09721208	      8.98916793	    -16.55162679	      6.56044511	    -13.04539593	      6.03411012	      2.02718384	     16.77614275	    -17.90210592	     -0.36054195	     44.51253445	     45.59733272	      0.00000000	      0.00000000	     -5.09726017	     -7.22122508	    -20.79945636	    100.39092636	     49.17934820	      0.00000000	      0.00000000
      2.28050000	     -4.31076428	     -6.24535403	      1.35360928	      0.93256995	      0.92912821	      0.55904965	     13.96364647	      4.03168957	    -19.74004930	     16.41934170	     16.41934170	      9.23710958	      1.61380658	     -4.22117062	     31.84640308	    -14.92199036	     -0.23768950	     66.32009067	     66.32009067	      9.23112612	    -16.80286577	      7.09640665	    -13.09779798	      6.10826231	      2.55720281	     18.73562598	    -18.34352769	      0.51633539	     45.19642156	     45.54308064	      0.00000000	      0.00000000	     -5.01467744	     -7.05432635	    -18.97914875	     96.33429384	     48.98213257	      0.00000000	      0.00000000
      2.29214286	     -4.36403131	     -6.28492055	      1.46006592	      0.93075082	      0.92978243	      0.55974185	     13.19421788	      4.26250948	    -19.82316466	     15.66850728	     15.66850728	      9.33012979	      1.95661575	     -4.14757303	     33.09003742	    -14.98883003	     -0.29997950	     65.04590679	     65.04590679	      9.31565286	    -17.14807666	      7.48274129	    -13.22706007	      6.19608116	      2.26488912	     21.02827070	    -18.13312251	      0.73641640	     46.36372046	     45.50390085	      0.00000000	      0.00000000	     -5.69720345	     -7.01920775	    -17.98901732	     93.44228100	     48.85617577	      0.00000000	      0.00000000
      2.30378571	     -4.45336433	     -6.32573886	      1.54701285	      0.92893771	      0.93029705	      0.56025401	     12.48260329	      4.46208603	    -19.97688383	     14.95964761	     14.95964761	      9.39449824	      2.40187280	     -4.21735214	     34.23354202	    -15.05960971	     -0.45323812	     63.37836180	     63.37836180	      9.53182445	    -17.35228782	      8.21646144	    -13.24223883	      6.33919070	      2.64892950	     22.94367234	    -18.46971278	      1.46748118	     47.20166134	     45.45356898	      0.00000000	      0.00000000	     -5.35770745	     -6.81699621	    -16.50539949	     88.79003326	     48.67014325	      0.00000000	      0.00000000
